<svg width="24" height="24" viewBox="0 0 24 24" fill="none" xmlns="http://www.w3.org/2000/svg">
<g id="Icon">
<g id="Vector">
<path d="M2 2H22V22H2V2Z" fill="#04050C"/>
<path fill-rule="evenodd" clip-rule="evenodd" d="M2.2 2C2.08954 2 2 2.08954 2 2.2V21.8C2 21.9105 2.08954 22 2.2 22H21.8C21.9105 22 22 21.9105 22 21.8V2.2C22 2.08954 21.9105 2 21.8 2H2.2Z" fill="#BECCCF"/>
<path d="M15.8332 16.9941H13.0578L10.4533 10.7803H10.3986C10.426 11.1449 10.4465 11.4844 10.4602 11.7988C10.4784 12.1087 10.4898 12.3913 10.4943 12.6465C10.5035 12.8971 10.508 13.1182 10.508 13.3096V16.9941H8.3V7H11.0549L13.6457 13.043H13.7004C13.6822 12.7057 13.6662 12.3913 13.6525 12.0996C13.6389 11.8079 13.6275 11.5391 13.6184 11.293C13.6092 11.0469 13.6047 10.8236 13.6047 10.623V7H15.8332V16.9941Z" fill="#BECCCF"/>
</g>
</g>
</svg>
